{"title":"Lucy (2014) 720p Eng HC Subs fiveofseven zombiRG","uid":12019551,"size":1447975766,"categoryP":"video","categoryS":"hd___movies","magnet":"?xt=urn:btih:0cea206d3037fd0b3a1431575f431dd1f0e45a76&amp;dn=Lucy+%282014%29+720p+Eng+HC+Subs+fiveofseven+zombiRG&amp;tr=udp%3A%2F%2Ftracker.openbittorrent.com%3A80&amp;tr=udp%3A%2F%2Fopen.demonii.com%3A1337&amp;tr=udp%3A%2F%2Ftracker.coppersurfer.tk%3A6969&amp;tr=udp%3A%2F%2Fexodus.desync.com%3A6969","seeders":12,"leechers":2,"uploader":"fiveofseven","files":3,"time":1434395631,"description":"English Subs Hardcoded for Non-English Dialogue\nAAC 2.0 Track 1 &amp; AC3 5.1 Track 2\n\n\nSpecial thanks to &quot;monodioo&quot; for providing translations, where needed.\nStandard Blu-Ray subtitles did not translate all dialogue.\nThese were translated from a Vietnamese subtitle, \nwhich covered all dialogue in the movie.\n\n &lt;a href=&quot;\nhttps://yuq.me/users/25/564/9pqOy6b4BE.jpg&quot; rel=&quot;nofollow&quot; target=&quot;_NEW&quot;&gt;\nhttps://yuq.me/users/25/564/9pqOy6b4BE.jpg&lt;/a&gt;\n\n\nPLOT - A woman, accidentally caught in a dark deal\nturns the tables on her captors and transforms into\na merciless warrior evolved beyond human logic.\n\n\nGeneral\nComplete name : C:Lucy 720p HC Extended Eng Subs fiveofseven zombiRG.mp4 [i](&quot;Extended&quot; is referring to MORE SUBTITLES and NOT a longer cut of the movie)[/i]\nFormat : MPEG-4\nFormat profile : Base Media\nCodec ID : isom\nFile size : 1.34 GiB\nDuration : 1h 29mn\nOverall bit rate mode : Variable\nOverall bit rate : 2 150 Kbps\nEncoded date : UTC 2015-02-15 17:24:03\nTagged date : UTC 2015-02-15 18:34:18\nWriting application : My MP4Box GUI 0.6.0.6 \nComment : Encoded by fiveofseven\n\nVideo\nID : 1\nFormat : AVC\nFormat/Info : Advanced Video Codec\nFormat profile : &lt;a class=&quot;__cf_email__&quot; href=&quot;/cdn-cgi/l/email-protection&quot; data-cfemail=&quot;5e163739361e126d706c&quot;&gt;[email&amp;#160;protected]&lt;/a&gt;&lt;script data-cfhash='f9e31' type=&quot;text/javascript&quot;&gt;\n/* &lt;![CDATA[ */!function(){try{var t=&quot;currentScript&quot;in document?document.currentScript:function(){for(var t=document.getElementsByTagName(&quot;script&quot;),e=t.length;e--;)if(t[e].getAttribute(&quot;data-cfhash&quot;))return t[e]}();if(t&amp;&amp;t.previousSibling){var e,r,n,i,c=t.previousSibling,a=c.getAttribute(&quot;data-cfemail&quot;);if(a){for(e=&quot;&quot;,r=parseInt(a.substr(0,2),16),n=2;a.length-n;n+=2)i=parseInt(a.substr(n,2),16)^r,e+=String.fromCharCode(i);e=document.createTextNode(e),c.parentNode.replaceChild(e,c)}t.parentNode.removeChild(t);}}catch(u){}}()/* ]]&gt; */&lt;/script&gt;\nFormat settings, CABAC : Yes\nFormat settings, ReFrames : 7 frames\nCodec ID : avc1\nCodec ID/Info : Advanced Video Coding\nDuration : 1h 29mn\nBit rate : 1 700 Kbps\nMaximum bit rate : 14.0 Mbps\nWidth : 1 280 pixels\nHeight : 544 pixels\nDisplay aspect ratio : 2.35:1\nFrame rate mode : Constant\nFrame rate : 23.976 fps\nColor space : YUV\nChroma subsampling : 4:2:0\nBit depth : 8 bits\nScan type : Progressive\nBits/(Pixel*Frame) : 0.102\nStream size : 1.06 GiB (79%)\nTitle : Lucy 720.mp4\nWriting library : x264 core 133 r2334 a3ac64b\nEncoding settings : [:Qno]\nLanguage : English\nEncoded date : UTC 2015-02-14 22:52:06\nTagged date : UTC 2015-02-15 17:25:18\n\nAudio #1\nID : 2\nFormat : AAC\nFormat/Info : Advanced Audio Codec\nFormat profile : LC\nCodec ID : 40\nDuration : 1h 29mn\nBit rate mode : Variable\nBit rate : 128 Kbps\nMaximum bit rate : 135 Kbps\nChannel count : 2 channels\nChannel positions : Front: L R\nSampling rate : 48.0 KHz\nCompression mode : Lossy\nDelay relative to video : 83ms\nStream size : 81.8 MiB (6%)\nTitle : aac 2.0.mp4\nLanguage : English\nEncoded date : UTC 2015-02-15 17:24:59\nTagged date : UTC 2015-02-15 17:25:18\n\nAudio #2\nID : 3\nFormat : AC-3\nFormat/Info : Audio Coding 3\nMode extension : CM (complete main)\nFormat settings, Endianness : Big\nCodec ID : ac-3\nDuration : 1h 29mn\nBit rate mode : Constant\nBit rate : 320 Kbps\nChannel count : 6 channels\nChannel positions : Front: L C R, Side: L R, LFE\nSampling rate : 48.0 KHz\nBit depth : 16 bits\nCompression mode : Lossy\nDelay relative to video : 83ms\nStream size : 204 MiB (15%)\nTitle : ac3 5.1.ac3\nLanguage : English\nEncoded date : UTC 2015-02-15 17:25:04\nTagged date : UTC 2015-02-15 17:25:18\n\n &lt;a href=&quot;\nhttps://yuq.me/users/25/564/4CwnZWt9hJ.png&quot; rel=&quot;nofollow&quot; target=&quot;_NEW&quot;&gt;\nhttps://yuq.me/users/25/564/4CwnZWt9hJ.png&lt;/a&gt; &lt;a href=&quot;\nhttps://yuq.me/users/25/564/2VeBCsPtQk.png&quot; rel=&quot;nofollow&quot; target=&quot;_NEW&quot;&gt;\nhttps://yuq.me/users/25/564/2VeBCsPtQk.png&lt;/a&gt; &lt;a href=&quot;\nhttps://yuq.me/users/25/564/vr2xehKBTw.png&quot; rel=&quot;nofollow&quot; target=&quot;_NEW&quot;&gt;\nhttps://yuq.me/users/25/564/vr2xehKBTw.png&lt;/a&gt; &lt;a href=&quot;\nhttps://yuq.me/users/25/564/CN5BgF7bXT.png&quot; rel=&quot;nofollow&quot; target=&quot;_NEW&quot;&gt;\nhttps://yuq.me/users/25/564/CN5BgF7bXT.png&lt;/a&gt;\n &lt;a href=&quot;\nhttps://yuq.me/users/25/564/aegRQCBILx.png&quot; rel=&quot;nofollow&quot; target=&quot;_NEW&quot;&gt;\nhttps://yuq.me/users/25/564/aegRQCBILx.png&lt;/a&gt;","torrent":{"xt":"urn:btih:0cea206d3037fd0b3a1431575f431dd1f0e45a76","amp;dn":"Lucy+%282014%29+720p+Eng+HC+Subs+fiveofseven+zombiRG","amp;tr":["udp%3A%2F%2Ftracker.openbittorrent.com%3A80","udp%3A%2F%2Fopen.demonii.com%3A1337","udp%3A%2F%2Ftracker.coppersurfer.tk%3A6969","udp%3A%2F%2Fexodus.desync.com%3A6969"],"infoHash":"0cea206d3037fd0b3a1431575f431dd1f0e45a76","infoHashBuffer":{"type":"Buffer","data":[12,234,32,109,48,55,253,11,58,20,49,87,95,67,29,209,240,228,90,118]},"announce":[],"urlList":[]}}